<?xml version="1.0" standalone="no"?>
<!DOCTYPE svg PUBLIC "-//W3C//DTD SVG 20010904//EN"
 "http://www.w3.org/TR/2001/REC-SVG-20010904/DTD/svg10.dtd">
<svg version="1.0" xmlns="http://www.w3.org/2000/svg"
 width="443.000000pt" height="103.000000pt" viewBox="0 0 443.000000 103.000000"
 preserveAspectRatio="xMidYMid meet">
<metadata>
Created by potrace 1.15, written by Peter Selinger 2001-2017
</metadata>
<g transform="translate(0.000000,103.000000) scale(0.100000,-0.100000)"
fill="#000000" stroke="none">
<path d="M1867 883 c-4 -3 -7 -19 -7 -34 0 -24 4 -28 33 -31 l32 -3 3 -252 2
-252 -32 -3 c-29 -3 -33 -7 -36 -35 l-3 -33 101 0 101 0 -3 33 c-2 26 -8 33
-28 35 -25 3 -25 3 -23 100 l1 97 59 0 58 0 46 -95 c33 -69 42 -96 32 -98 -8
-2 -13 -17 -13 -38 l0 -34 80 0 80 0 0 35 c0 30 -3 35 -23 35 -20 0 -31 15
-70 98 l-46 97 44 45 45 46 0 100 0 100 -48 47 -48 47 -165 0 c-91 0 -169 -3
-172 -7z m335 -100 c25 -24 28 -34 28 -88 0 -54 -3 -64 -28 -89 -27 -25 -33
-27 -111 -24 l-82 3 -2 113 -2 112 84 0 c78 0 87 -2 113 -27z"/>
<path d="M3067 883 c-4 -3 -7 -19 -7 -34 0 -24 4 -28 33 -31 l32 -3 3 -252 2
-252 -32 -3 c-29 -3 -33 -7 -36 -35 l-3 -33 101 0 101 0 -3 33 c-2 26 -8 33
-28 35 -25 3 -25 3 -23 100 l1 97 59 0 58 0 46 -95 c33 -69 42 -96 32 -98 -8
-2 -13 -17 -13 -38 l0 -34 80 0 80 0 0 35 c0 30 -3 35 -23 35 -20 0 -31 15
-70 98 l-46 97 44 45 45 46 0 100 0 100 -48 47 -48 47 -165 0 c-91 0 -169 -3
-172 -7z m335 -100 c25 -24 28 -34 28 -88 0 -54 -3 -64 -28 -89 -27 -25 -33
-27 -111 -24 l-82 3 -2 113 -2 112 84 0 c78 0 87 -2 113 -27z"/>
<path d="M450 765 c0 -32 2 -35 30 -35 l30 0 0 -210 0 -210 -30 0 c-28 0 -30
-3 -30 -35 l0 -35 200 0 201 0 -3 83 -3 82 -32 3 -33 3 0 -50 0 -51 -95 0 -95
0 0 210 0 210 35 0 c33 0 35 2 35 35 l0 35 -105 0 -105 0 0 -35z"/>
<path d="M922 768 c3 -29 7 -33 36 -36 l32 -3 0 -209 0 -209 -32 -3 c-29 -3
-33 -7 -36 -35 l-3 -33 110 0 111 0 0 35 c0 33 -2 35 -35 35 l-35 0 0 210 0
210 35 0 c33 0 35 2 35 35 l0 35 -111 0 -110 0 3 -32z"/>
<path d="M1270 765 c0 -32 2 -35 30 -35 l30 0 0 -210 0 -210 -30 0 c-28 0 -30
-3 -30 -35 l0 -35 183 0 183 0 47 48 c46 47 47 49 47 113 0 59 -3 68 -30 94
-35 34 -37 46 -10 70 16 14 20 31 20 79 0 60 -1 63 -48 109 l-48 47 -172 0
-172 0 0 -35z m335 -60 c34 -33 34 -93 1 -124 -21 -20 -32 -22 -107 -19 l-84
3 -3 69 c-2 38 -1 75 2 83 4 9 28 13 86 13 73 0 83 -3 105 -25z m24 -241 c31
-39 28 -94 -7 -127 -26 -25 -34 -27 -120 -27 l-92 0 0 90 0 90 99 0 c96 0 100
-1 120 -26z"/>
<path d="M2420 765 c0 -30 3 -35 23 -35 20 0 27 -12 55 -89 18 -48 32 -91 32
-94 0 -4 -46 -8 -102 -9 l-103 -3 -3 -27 -3 -28 118 0 119 0 43 -120 43 -120
57 0 56 0 41 118 41 117 102 3 101 3 0 29 0 30 -89 0 -89 0 33 93 c29 82 36
92 59 95 22 3 26 8 26 38 l0 34 -96 0 -95 0 3 -32 c2 -28 8 -34 31 -36 15 -2
27 -4 27 -5 0 -1 -15 -42 -34 -92 l-33 -90 -85 -3 -85 -3 -32 90 c-17 50 -31
92 -31 96 0 3 11 5 25 5 22 0 25 4 25 35 l0 35 -90 0 -90 0 0 -35z"/>
<path d="M3620 765 c0 -32 3 -35 28 -35 26 0 32 -10 97 -147 56 -119 71 -160
75 -210 l5 -63 -37 0 c-37 0 -38 -1 -38 -35 l0 -35 115 0 115 0 0 35 c0 34 -1
35 -40 35 l-40 0 0 47 c0 38 15 79 77 210 72 154 78 163 105 163 25 0 28 3 28
35 l0 35 -90 0 -90 0 0 -35 c0 -31 3 -35 25 -35 24 0 24 -1 -28 -107 -29 -60
-57 -110 -62 -112 -5 -2 -33 47 -62 108 -51 110 -52 111 -27 111 21 0 24 5 24
35 l0 35 -90 0 -90 0 0 -35z"/>
</g>
</svg>
