<?xml version="1.0" encoding="utf-8"?>
<!-- Generator: Adobe Illustrator 21.1.0, SVG Export Plug-In . SVG Version: 6.00 Build 0)  -->
<svg version="1.1" id="Background" xmlns="http://www.w3.org/2000/svg" xmlns:xlink="http://www.w3.org/1999/xlink" x="0px" y="0px"
	 viewBox="0 0 1366 900" style="enable-background:new 0 0 1366 900;" xml:space="preserve">
<style type="text/css">
	.st0{fill:url(#Gradient_2_);}
	.st1{opacity:0.35;}
	.st2{opacity:0.1;fill:#EDEDED;}
	.st3{opacity:0.2;fill:#EDEDED;}
	.st4{fill:none;}
	.st5{fill:none;stroke:#EDEDED;stroke-miterlimit:10;}
	.st6{fill:#FFFFFF;}
	.st7{fill:none;stroke:#FFFFFF;stroke-width:0.25;stroke-miterlimit:10;}
	.st8{fill:url(#SVGID_1_);stroke:#FFFFFF;stroke-width:0.25;stroke-miterlimit:10;}
</style>
<linearGradient id="Gradient_2_" gradientUnits="userSpaceOnUse" x1="116.5" y1="-2565.5" x2="1249.5" y2="-3698.5" gradientTransform="matrix(1 0 0 -1 0 -2682)">
	<stop  offset="2.552599e-03" style="stop-color:#BFDBF2"/>
	<stop  offset="6.893666e-02" style="stop-color:#BAD9F1"/>
	<stop  offset="0.1494" style="stop-color:#ABD5EF"/>
	<stop  offset="0.2371" style="stop-color:#93CDEB"/>
	<stop  offset="0.33" style="stop-color:#70C2E5"/>
	<stop  offset="0.4259" style="stop-color:#45B4DE"/>
	<stop  offset="0.5" style="stop-color:#1EA7D7"/>
	<stop  offset="0.8363" style="stop-color:#0062BE"/>
	<stop  offset="0.9944" style="stop-color:#054F90"/>
</linearGradient>
<rect id="Gradient_1_" class="st0" width="1366" height="900"/>
<g id="Elements" class="st1">
	<g id="blocks">
		<polygon class="st2" points="664.6,872.1 743.4,677.6 493.8,880 495.3,882 		"/>
		<polygon class="st2" points="491,882.3 493.7,882.1 493.8,880 		"/>
		<polygon class="st2" points="1005.7,722.3 860.2,871.2 1014.3,830.2 		"/>
		<polygon class="st2" points="1146.2,795.2 1141.3,583.7 1053.4,673.5 1106.1,805.8 		"/>
		<polygon class="st2" points="1148.6,894.1 1146.7,815.8 1120.6,842.3 1141,893.5 		"/>
		<polygon class="st2" points="1300.9,692.8 1313.2,657.6 1302.2,640.7 		"/>
		<polygon class="st2" points="1053.4,673.5 989,511.6 1005.7,722.3 		"/>
		<polyline class="st2" points="816.7,899.5 989.5,514.5 847.7,473.1 790.3,856.5 802.2,899.5 		"/>
		<polygon class="st2" points="1141,893.5 1120.6,842.3 1075.4,888.3 		"/>
		<polygon class="st2" points="1141,893.5 1120.6,842.3 1075.4,888.3 		"/>
		<polygon class="st2" points="1014.3,830.2 1106.1,805.8 1053.4,673.5 1005.7,722.3 		"/>
		<polygon class="st2" points="1014.3,830.2 1106.1,805.8 1053.4,673.5 1005.7,722.3 		"/>
		<polygon class="st2" points="493.8,880 493.7,882.1 495.3,882 		"/>
		<polygon class="st2" points="493.8,880 493.7,882.1 495.3,882 		"/>
		<polygon class="st3" points="1288.5,619.4 1302.2,640.7 1304.5,551.1 		"/>
		<polygon class="st2" points="1310.2,526.6 1304.5,551.1 1302.2,640.7 1313.2,657.6 1357.2,531.7 		"/>
		<polygon class="st3" points="1310.2,526.6 1304.5,551.1 1302.2,640.7 1313.2,657.6 1357.2,531.7 		"/>
		<path class="st2" d="M1343.5,384.6l15.5-66.2c-78,20.6-154.9,41.2-154.9,41.2L1343.5,384.6z"/>
		<polygon class="st2" points="1305.1,526 1310.2,526.6 1329.3,445.1 1307.2,442.5 		"/>
		<polygon class="st2" points="1305.1,526 1310.2,526.6 1329.3,445.1 1307.2,442.5 		"/>
		<polygon class="st3" points="1305.1,526 1222.3,517 1288.5,619.4 1304.5,551.1 		"/>
		<polygon class="st2" points="1305.1,526 1222.3,517 1288.5,619.4 1304.5,551.1 		"/>
		<polygon class="st2" points="1304.5,551.1 1310.2,526.6 1305.1,526 		"/>
		<polygon class="st3" points="1304.5,551.1 1310.2,526.6 1305.1,526 		"/>
		<polygon class="st2" points="1304.5,551.1 1310.2,526.6 1305.1,526 		"/>
		<polygon class="st2" points="1174.4,787.7 1146.2,795.2 1146.7,815.8 		"/>
		<polygon class="st2" points="1120.6,842.3 1146.7,815.8 1146.2,795.2 1106.1,805.8 		"/>
		<polygon class="st2" points="1120.6,842.3 1146.7,815.8 1146.2,795.2 1106.1,805.8 		"/>
		<polygon class="st2" points="1014.3,830.2 860.2,871.2 1018.6,883.8 		"/>
		<polygon class="st2" points="1014.3,830.2 860.2,871.2 1018.6,883.8 		"/>
		<polygon class="st2" points="1075.4,888.3 1120.6,842.3 1106.1,805.8 1014.3,830.2 1018.6,883.8 		"/>
		<polygon class="st2" points="1075.4,888.3 1120.6,842.3 1106.1,805.8 1014.3,830.2 1018.6,883.8 		"/>
		<polygon class="st2" points="1075.4,888.3 1120.6,842.3 1106.1,805.8 1014.3,830.2 1018.6,883.8 		"/>
		<polygon class="st4" points="874.7,900 860.2,871.2 1005.7,722.3 989,511.6 983.2,497.2 982.3,497 818,877.1 826.4,900 		"/>
		<polygon class="st4" points="1172.3,900 1180.9,798.9 1175.7,787.4 1174.4,787.7 1146.7,815.8 1148.6,894.1 1141,893.5 1144,900 
					"/>
		<path class="st2" d="M1294.1,899.7c0.8-1.1,1.7-2.3,2.5-3.4l-61.5-47.7l3,51"/>
		<path class="st2" d="M1301.9,899.7l-5.3-3.4c-0.8,1.1-1.7,2.3-2.5,3.4"/>
		<path class="st2" d="M1301.9,899.7l-5.3-3.4c-0.8,1.1-1.7,2.3-2.5,3.4"/>
		<polyline class="st2" points="825.8,899.5 818,877.1 808.3,899.5 		"/>
		<polyline class="st2" points="1143.4,899.5 1141,893.5 1075.4,888.3 1064.4,899.5 		"/>
		<polyline class="st2" points="507.9,899.5 495.3,882 493.7,882.1 492.6,899.5 		"/>
		<polyline class="st2" points="1226.6,899.5 1180.9,798.9 1172.4,899.5 		"/>
		<polyline class="st2" points="1019.8,899.5 1018.6,883.8 860.2,871.2 873.9,899.5 		"/>
		<polyline class="st2" points="1064.4,899.5 1075.4,888.3 1018.6,883.8 1019.8,899.5 		"/>
		<polyline class="st2" points="1064.4,899.5 1075.4,888.3 1018.6,883.8 1019.8,899.5 		"/>
		<path class="st5" d="M509,335"/>
		<path class="st5" d="M807.6,335"/>
		<line class="st4" x1="874.7" y1="335" x2="826.4" y2="335"/>
		<line class="st2" x1="324.9" y1="335" x2="268" y2="335"/>
		<line class="st2" x1="509" y1="335" x2="492.5" y2="335"/>
		<g>
			<polygon class="st4" points="1366,288.8 1359.1,318.4 1343.5,384.6 1329.3,445.1 1366,449.5 			"/>
			<polygon class="st4" points="1366,506.4 1357.2,531.7 1366,532.6 			"/>
			<polygon class="st2" points="1366,449.5 1329.3,445.1 1310.2,526.6 1357.2,531.7 1366,506.4 			"/>
			<polygon class="st3" points="1357.2,531.7 1313.2,657.6 1366,739.3 1366,532.6 			"/>
			<path class="st2" d="M1204.1,359.6c0,0,76.9-20.7,154.9-41.2l6.9-29.6v-26.6l-263.4,125.1l132.1,461.1l53.7-229L1222.3,517
				l82.8,9l2.1-83.5l22.1,2.7l14.2-60.6L1204.1,359.6z"/>
			<path class="st2" d="M1343.5,384.6l15.5-66.2c-78,20.6-154.9,41.2-154.9,41.2L1343.5,384.6z"/>
			<path class="st2" d="M1296.6,896.2l5.1,3.3v-0.1h64.2v-98C1343.5,832.2,1320.1,864.2,1296.6,896.2z"/>
		</g>
		<g>
			<path class="st2" d="M1359.1,318.4l-15.5,66.2l22.5,4v-72.1C1363.7,317.1,1361.4,317.7,1359.1,318.4z"/>
		</g>
		<g>
			<polygon class="st4" points="1366,39.4 1366,1 1351.3,29.9 			"/>
			<path class="st2" d="M1181.4,0c-66.2,2.6-111.7,4.4-111.7,4.4l244.7,66.1L1265.6,0H1181.4z"/>
			<polygon class="st2" points="1366,1 1366,0 1305,0 1351.3,29.9 			"/>
			<polygon class="st2" points="1351.3,29.9 1328.6,74.3 1314.4,70.5 1336.4,102.2 1366,81.3 1366,39.4 			"/>
			<polygon class="st2" points="1351.3,29.9 1305,0 1265.6,0 1314.4,70.5 1328.6,74.3 			"/>
			<polygon class="st2" points="1351.3,29.9 1305,0 1265.6,0 1314.4,70.5 1328.6,74.3 			"/>
		</g>
	</g>
	<g id="balls">
		<circle class="st6" cx="494" cy="881" r="3"/>
		<circle class="st6" cx="437" cy="850" r="4"/>
		<circle class="st6" cx="466" cy="775" r="2"/>
		<circle class="st6" cx="591" cy="773" r="4"/>
		<circle class="st6" cx="615" cy="666" r="3"/>
		<circle class="st6" cx="664" cy="871" r="3"/>
		<circle class="st6" cx="742" cy="679" r="3"/>
		<circle class="st6" cx="790" cy="856" r="4"/>
		<circle class="st6" cx="818" cy="876" r="2"/>
		<circle class="st6" cx="1054" cy="674" r="3"/>
		<circle class="st6" cx="1006" cy="722" r="3"/>
		<circle class="st6" cx="989" cy="517" r="5"/>
		<circle class="st6" cx="848" cy="473" r="5"/>
		<circle class="st6" cx="1077" cy="542" r="3"/>
		<circle class="st6" cx="879" cy="611" r="4"/>
		<circle class="st6" cx="1146" cy="795" r="4"/>
		<circle class="st6" cx="1181" cy="799" r="3"/>
		<circle class="st6" cx="1166" cy="695" r="3"/>
		<circle class="st6" cx="1141" cy="585" r="2"/>
		<circle class="st6" cx="1289" cy="620" r="5"/>
		<circle class="st6" cx="1235" cy="848" r="3"/>
		<circle class="st6" cx="1356" cy="860" r="3"/>
		<circle class="st6" cx="1172" cy="506" r="3"/>
		<circle class="st6" cx="1105" cy="390" r="5"/>
		<circle class="st6" cx="1343" cy="385" r="5"/>
		<circle class="st6" cx="1307" cy="442" r="3"/>
		<circle class="st6" cx="1231" cy="317" r="3"/>
		<circle class="st6" cx="894" cy="773" r="4"/>
		<circle class="st6" cx="1094" cy="451" r="3"/>
		<circle class="st6" cx="1204" cy="359" r="5"/>
		<circle class="st6" cx="1359" cy="318" r="2"/>
		<circle class="st6" cx="1277" cy="289" r="3"/>
		<circle class="st6" cx="1075" cy="888" r="4"/>
		<circle class="st6" cx="1253" cy="667" r="4"/>
		<circle class="st6" cx="951" cy="816" r="3"/>
		<circle class="st6" cx="1301" cy="694" r="3"/>
		<circle class="st6" cx="1343" cy="143" r="3"/>
		<circle class="st6" cx="1014" cy="432" r="3"/>
		<circle class="st6" cx="1222" cy="517" r="5"/>
		<circle class="st6" cx="1318" cy="51" r="2"/>
		<circle class="st6" cx="1268" cy="27" r="3"/>
		<circle class="st6" cx="1311" cy="781" r="2"/>
		<circle class="st6" cx="332" cy="770" r="2"/>
		<circle class="st6" cx="225" cy="756" r="4"/>
		<circle class="st6" cx="290" cy="666" r="3"/>
		<circle class="st6" cx="280" cy="837" r="3"/>
		<circle class="st6" cx="61" cy="816" r="3"/>
		<circle class="st6" cx="130" cy="868" r="2"/>
		<circle class="st6" cx="121" cy="685" r="2"/>
		<circle class="st6" cx="248" cy="540" r="3"/>
		<circle class="st6" cx="30" cy="534" r="4"/>
		<circle class="st6" cx="363" cy="881" r="2"/>
		<circle class="st6" cx="335" cy="735" r="5"/>
		<circle class="st6" cx="131" cy="614" r="4"/>
		<circle class="st6" cx="146" cy="519" r="2"/>
		<circle class="st6" cx="99" cy="556" r="2"/>
		<circle class="st6" cx="24.5" cy="329.5" r="2"/>
		<circle class="st6" cx="742" cy="804" r="3"/>
	</g>
	<g id="lines">
		<line class="st7" x1="466" y1="775" x2="363" y2="881"/>
		<line class="st7" x1="466" y1="775" x2="437" y2="850"/>
		<line class="st7" x1="406" y1="900" x2="437" y2="850"/>
		<line class="st7" x1="494" y1="881" x2="437" y2="850"/>
		<line class="st7" x1="466" y1="775" x2="494" y2="881"/>
		<line class="st7" x1="482" y1="900" x2="494" y2="881"/>
		<line class="st7" x1="494" y1="881" x2="530" y2="900"/>
		<line class="st7" x1="494" y1="881" x2="591" y2="773"/>
		<line class="st7" x1="437" y1="850" x2="591" y2="773"/>
		<line class="st7" x1="466" y1="775" x2="591" y2="773"/>
		<line class="st7" x1="664" y1="871" x2="591" y2="773"/>
		<line class="st7" x1="664" y1="871" x2="619" y2="900"/>
		<line class="st7" x1="573" y1="900" x2="591" y2="773"/>
		<line class="st7" x1="363" y1="881" x2="437" y2="850"/>
		<line class="st7" x1="494" y1="881" x2="719" y2="900"/>
		<line class="st7" x1="615" y1="666" x2="591" y2="773"/>
		<line class="st7" x1="615" y1="666" x2="664" y2="871"/>
		<line class="st7" x1="615" y1="666" x2="742" y2="679"/>
		<line class="st7" x1="742" y1="679" x2="591" y2="773"/>
		<line class="st7" x1="742" y1="679" x2="743" y2="900"/>
		<line class="st7" x1="790" y1="856" x2="664" y2="871"/>
		<line class="st7" x1="790" y1="856" x2="742" y2="679"/>
		<line class="st7" x1="790" y1="856" x2="879" y2="611"/>
		<path class="st7" d="M742,679"/>
		<line class="st7" x1="742" y1="679" x2="879" y2="611"/>
		<line class="st7" x1="894" y1="773" x2="879" y2="611"/>
		<line class="st7" x1="818" y1="876" x2="894" y2="773"/>
		<line class="st7" x1="664" y1="871" x2="818" y2="876"/>
		<line class="st7" x1="818" y1="876" x2="790" y2="856"/>
		<line class="st7" x1="751" y1="900" x2="818" y2="876"/>
		<line class="st7" x1="909" y1="900" x2="894" y2="773"/>
		<line class="st7" x1="883" y1="900" x2="818" y2="876"/>
		<line class="st7" x1="879" y1="611" x2="1006" y2="722"/>
		<line class="st7" x1="879" y1="611" x2="951" y2="816"/>
		<linearGradient id="SVGID_1_" gradientUnits="userSpaceOnUse" x1="823.25" y1="799.25" x2="842.75" y2="779.75">
			<stop  offset="2.552599e-03" style="stop-color:#BFDBF2"/>
			<stop  offset="6.893666e-02" style="stop-color:#BAD9F1"/>
			<stop  offset="0.1494" style="stop-color:#ABD5EF"/>
			<stop  offset="0.2371" style="stop-color:#93CDEB"/>
			<stop  offset="0.33" style="stop-color:#70C2E5"/>
			<stop  offset="0.4259" style="stop-color:#45B4DE"/>
			<stop  offset="0.5" style="stop-color:#1EA7D7"/>
			<stop  offset="0.8363" style="stop-color:#0062BE"/>
			<stop  offset="0.9944" style="stop-color:#054F90"/>
		</linearGradient>
		<line class="st8" x1="742" y1="679" x2="924" y2="900"/>
		<path class="st7" d="M1075,888"/>
		<path class="st7" d="M879,611"/>
		<line class="st7" x1="615" y1="666" x2="790" y2="856"/>
		<line class="st7" x1="989" y1="517" x2="951" y2="819"/>
		<line class="st7" x1="936" y1="900" x2="951" y2="816"/>
		<path class="st7" d="M1075,888"/>
		<path class="st7" d="M951,816"/>
		<line class="st7" x1="951" y1="816" x2="1075" y2="888"/>
		<line class="st7" x1="1006" y1="722" x2="1075" y2="888"/>
		<line class="st7" x1="1141" y1="585" x2="1075" y2="888"/>
		<line class="st7" x1="1166" y1="695" x2="1006" y2="722"/>
		<line class="st7" x1="1054" y1="674" x2="951" y2="816"/>
		<line class="st7" x1="989" y1="517" x2="1141" y2="585"/>
		<line class="st7" x1="989" y1="517" x2="879" y2="611"/>
		<line class="st7" x1="1014" y1="432" x2="1078" y2="543"/>
		<line class="st7" x1="849" y1="474" x2="879" y2="611"/>
		<line class="st7" x1="1106" y1="390" x2="989" y2="515"/>
		<line class="st7" x1="847" y1="473" x2="1094" y2="451"/>
		<line class="st7" x1="989" y1="517" x2="1014" y2="432"/>
		<line class="st7" x1="1077" y1="541" x2="1172" y2="506"/>
		<line class="st7" x1="1141" y1="585" x2="1172" y2="506"/>
		<line class="st7" x1="1106" y1="390" x2="1006" y2="722"/>
		<line class="st7" x1="1166" y1="695" x2="989" y2="517"/>
		<line class="st7" x1="1167" y1="695" x2="1356" y2="860"/>
		<path class="st7" d="M1235,848"/>
		<path class="st7" d="M1141,585"/>
		<line class="st7" x1="1222" y1="517" x2="1253" y2="667"/>
		<line class="st7" x1="1146" y1="794" x2="1235" y2="848"/>
		<line class="st7" x1="1146" y1="794" x2="1134" y2="900"/>
		<line class="st7" x1="1078" y1="543" x2="1075" y2="888"/>
		<line class="st7" x1="1356" y1="860" x2="1323" y2="900"/>
		<line class="st7" x1="1077" y1="900" x2="1075" y2="888"/>
		<line class="st7" x1="1075" y1="888" x2="1039" y2="900"/>
		<line class="st7" x1="1357" y1="861" x2="1235" y2="848"/>
		<path class="st7" d="M1357,860"/>
		<line class="st7" x1="1311" y1="781" x2="1356" y2="860"/>
		<line class="st7" x1="1366" y1="889" x2="1356" y2="860"/>
		<line class="st7" x1="1235" y1="849" x2="1229" y2="900"/>
		<line class="st7" x1="1310" y1="900" x2="1236" y2="849"/>
		<line class="st7" x1="742" y1="679" x2="1054" y2="674"/>
		<line class="st7" x1="1141" y1="585" x2="1253" y2="667"/>
		<line class="st7" x1="1094" y1="451" x2="1222" y2="517"/>
		<line class="st7" x1="1105" y1="389" x2="1172" y2="506"/>
		<line class="st7" x1="1204" y1="359" x2="1172" y2="506"/>
		<path class="st7" d="M1006,722"/>
		<path class="st7" d="M1204,359"/>
		<line class="st7" x1="1222" y1="517" x2="1141" y2="585"/>
		<path class="st7" d="M1301,694"/>
		<path class="st7" d="M1222,517"/>
		<line class="st7" x1="1307" y1="442" x2="1289" y2="620"/>
		<path class="st7" d="M1356,861"/>
		<path class="st7" d="M1289,619"/>
		<line class="st7" x1="1235" y1="849" x2="1253" y2="667"/>
		<line class="st7" x1="1253" y1="667" x2="1301" y2="694"/>
		<line class="st7" x1="1253" y1="667" x2="1166" y2="695"/>
		<line class="st7" x1="1288" y1="620" x2="1253" y2="667"/>
		<line class="st7" x1="1307" y1="442" x2="1166" y2="695"/>
		<path class="st7" d="M1301,694"/>
		<path class="st7" d="M1172,506"/>
		<line class="st7" x1="1343" y1="384" x2="1301" y2="695"/>
		<path class="st7" d="M1289,621"/>
		<path class="st7" d="M1343,385"/>
		<line class="st7" x1="1366" y1="614" x2="1301" y2="694"/>
		<line class="st7" x1="1301" y1="694" x2="1366" y2="687"/>
		<line class="st7" x1="1366" y1="722" x2="1301" y2="694"/>
		<path class="st7" d="M1301,694"/>
		<path class="st7" d="M1289,619"/>
		<line class="st7" x1="1289" y1="621" x2="1366" y2="582"/>
		<line class="st7" x1="1307" y1="442" x2="1343" y2="386"/>
		<line class="st7" x1="1307" y1="443" x2="1204" y2="359"/>
		<line class="st7" x1="1222" y1="517" x2="1205" y2="360"/>
		<line class="st7" x1="1222" y1="517" x2="1307" y2="441"/>
		<line class="st7" x1="1077" y1="541" x2="879" y2="611"/>
		<line class="st7" x1="1343" y1="384" x2="1172" y2="506"/>
		<line class="st7" x1="1014" y1="432" x2="1105" y2="390"/>
		<line class="st7" x1="1343" y1="385" x2="1277" y2="289"/>
		<line class="st7" x1="1105" y1="390" x2="1204" y2="359"/>
		<path class="st7" d="M1231,317"/>
		<path class="st7" d="M1105,390"/>
		<line class="st7" x1="1359" y1="318" x2="1277" y2="289"/>
		<line class="st7" x1="1204" y1="360" x2="1231" y2="317"/>
		<line class="st7" x1="1307" y1="441" x2="1231" y2="317"/>
		<line class="st7" x1="1343" y1="385" x2="1359" y2="318"/>
		<line class="st7" x1="1204" y1="359" x2="1289" y2="620"/>
		<line class="st7" x1="1277" y1="289" x2="1343" y2="143"/>
		<line class="st7" x1="1359" y1="318" x2="1343" y2="143"/>
		<line class="st7" x1="1277" y1="289" x2="1366" y2="187"/>
		<line class="st7" x1="1359" y1="318" x2="1366" y2="310"/>
		<line class="st7" x1="1343" y1="143" x2="1366" y2="136"/>
		<line class="st7" x1="1318" y1="51" x2="1343" y2="143"/>
		<line class="st7" x1="1366" y1="105" x2="1343" y2="143"/>
		<line class="st7" x1="1366" y1="149" x2="1343" y2="143"/>
		<path class="st7" d="M1231,317"/>
		<path class="st7" d="M1344,143"/>
		<line class="st7" x1="1268" y1="27" x2="1318" y2="51"/>
		<line class="st7" x1="1231" y1="317" x2="1277" y2="289"/>
		<line class="st7" x1="848" y1="473" x2="742" y2="679"/>
		<line class="st7" x1="790" y1="856" x2="772" y2="900"/>
		<line class="st7" x1="1343" y1="384" x2="1231" y2="317"/>
		<line class="st7" x1="1366" y1="501" x2="1343" y2="384"/>
		<line class="st7" x1="1357" y1="318" x2="1231" y2="317"/>
		<path class="st7" d="M1147,795"/>
		<path class="st7" d="M818,876"/>
		<line class="st7" x1="1147" y1="795" x2="1301" y2="694"/>
		<line class="st7" x1="1235" y1="849" x2="1300" y2="696"/>
		<line class="st7" x1="1166" y1="695" x2="1054" y2="674"/>
		<line class="st7" x1="1054" y1="674" x2="879" y2="611"/>
		<line class="st7" x1="1166" y1="695" x2="951" y2="816"/>
		<line class="st7" x1="1054" y1="674" x2="1147" y2="795"/>
		<line class="st7" x1="898" y1="900" x2="1075" y2="888"/>
		<line class="st7" x1="790" y1="856" x2="951" y2="816"/>
		<line class="st7" x1="1146" y1="795" x2="951" y2="816"/>
		<line class="st7" x1="1366" y1="742" x2="1311" y2="781"/>
		<line class="st7" x1="1218" y1="900" x2="1147" y2="796"/>
		<line class="st7" x1="1366" y1="810" x2="1311" y2="781"/>
		<line class="st7" x1="1014" y1="900" x2="951" y2="816"/>
		<path class="st7" d="M1146,796"/>
		<path class="st7" d="M1075,889"/>
		<line class="st7" x1="1075" y1="888" x2="1124" y2="900"/>
		<line class="st7" x1="1166" y1="695" x2="1181" y2="799"/>
		<line class="st7" x1="1311" y1="781" x2="1181" y2="799"/>
		<line class="st7" x1="494" y1="881" x2="664" y2="871"/>
		<line class="st7" x1="1236" y1="848" x2="1311" y2="781"/>
		<line class="st7" x1="1302" y1="694" x2="1311" y2="781"/>
		<line class="st7" x1="1075" y1="888" x2="1181" y2="799"/>
		<line class="st7" x1="1006" y1="722" x2="894" y2="773"/>
		<line class="st7" x1="332" y1="770" x2="280" y2="837"/>
		<line class="st7" x1="466" y1="775" x2="225" y2="756"/>
		<line class="st7" x1="290" y1="666" x2="280" y2="837"/>
		<line class="st7" x1="290" y1="666" x2="332" y2="770"/>
		<line class="st7" x1="334" y1="735" x2="466" y2="775"/>
		<line class="st7" x1="280" y1="837" x2="130" y2="868"/>
		<line class="st7" x1="363" y1="881" x2="280" y2="837"/>
		<line class="st7" x1="363" y1="881" x2="332" y2="770"/>
		<line class="st7" x1="248" y1="540" x2="290" y2="666"/>
		<line class="st7" x1="290" y1="666" x2="121" y2="685"/>
		<line class="st7" x1="146" y1="519" x2="30" y2="534"/>
		<line class="st7" x1="121" y1="685" x2="0" y2="613"/>
		<line class="st7" x1="30" y1="534" x2="0" y2="558"/>
		<line class="st7" x1="61" y1="816" x2="121" y2="685"/>
		<line class="st7" x1="130" y1="868" x2="121" y2="685"/>
		<line class="st7" x1="131" y1="614" x2="30" y2="534"/>
		<line class="st7" x1="121" y1="685" x2="88" y2="900"/>
		<line class="st7" x1="61" y1="816" x2="0" y2="649"/>
		<line class="st7" x1="61" y1="816" x2="0" y2="900"/>
		<line class="st7" x1="225" y1="756" x2="121" y2="685"/>
		<line class="st7" x1="130" y1="868" x2="225" y2="756"/>
		<line class="st7" x1="248" y1="541" x2="121" y2="685"/>
		<line class="st7" x1="248" y1="541" x2="225" y2="756"/>
		<line class="st7" x1="30" y1="534" x2="0" y2="336"/>
		<line class="st7" x1="334" y1="735" x2="291" y2="666"/>
		<line class="st7" x1="248" y1="541" x2="131" y2="614"/>
		<line class="st7" x1="0" y1="766" x2="121" y2="685"/>
		<line class="st7" x1="131" y1="614" x2="121" y2="685"/>
		<line class="st7" x1="0" y1="600" x2="131" y2="614"/>
		<line class="st7" x1="146" y1="519" x2="248" y2="540"/>
		<line class="st7" x1="99" y1="556" x2="248" y2="540"/>
		<line class="st7" x1="99" y1="556" x2="0" y2="255"/>
		<line class="st7" x1="146" y1="519" x2="0" y2="300"/>
		<line class="st7" x1="130" y1="868" x2="36" y2="900"/>
		<line class="st7" x1="130" y1="868" x2="178" y2="900"/>
		<line class="st7" x1="363" y1="881" x2="239" y2="900"/>
		<line class="st7" x1="363" y1="881" x2="374" y2="900"/>
		<line class="st7" x1="225" y1="756" x2="280" y2="837"/>
		<line class="st7" x1="1366" y1="844" x2="1356" y2="860"/>
		<path class="st7" d="M1268,27"/>
		<line class="st7" x1="1318" y1="51" x2="1366" y2="50"/>
		<line class="st7" x1="1268" y1="27" x2="1348" y2="0"/>
		<line class="st7" x1="1268" y1="27" x2="1097" y2="0"/>
		<line class="st7" x1="99" y1="556" x2="0" y2="590"/>
		<line class="st7" x1="742" y1="804" x2="591" y2="773"/>
		<line class="st7" x1="742" y1="804" x2="894" y2="773"/>
	</g>
</g>
</svg>
